Coordinates
version=1
nRows=35
nColumns=38
inDegrees=no

Units are S.I. units (second, meters, Newtons, ...)
If the header above contains a line with 'inDegrees', this indicates whether rotational values are in degrees (yes) or radians (no).

endheader
time	pelvis_tilt	pelvis_list	pelvis_rotation	pelvis_tx	pelvis_ty	pelvis_tz	hip_flexion_r	hip_adduction_r	hip_rotation_r	knee_angle_r	ankle_angle_r	subtalar_angle_r	mtp_angle_r	hip_flexion_l	hip_adduction_l	hip_rotation_l	knee_angle_l	ankle_angle_l	subtalar_angle_l	mtp_angle_l	lumbar_extension	lumbar_bending	lumbar_rotation	arm_flex_r	arm_add_r	arm_rot_r	elbow_flex_r	pro_sup_r	wrist_flex_r	wrist_dev_r	arm_flex_l	arm_add_l	arm_rot_l	elbow_flex_l	pro_sup_l	wrist_flex_l	wrist_dev_l
110	-1.10852	1.30875	2.64222	0.905838	-0.640538	1.07377	0.168661	-0.224554	0.0764063	0.213355	-0.365061	0	0	0.103221	0.0332422	-0.17793	0.413634	-0.41631	0	0	-0.203241	0.27675	0.14501	0.385803	-0.277549	0.661023	1.70553	1.5708	0	0	0.245419	-0.118817	-0.059719	1.02429	1.5708	0	0
110.01	-1.11045	1.30842	2.64445	0.905532	-0.64074	1.07374	0.168461	-0.225137	0.0783636	0.213524	-0.363632	0	0	0.101421	0.0338992	-0.177857	0.410913	-0.416152	0	0	-0.201726	0.277502	0.143503	0.391111	-0.274742	0.661722	1.69812	1.5708	0	0	0.252135	-0.116868	-0.0616977	1.01516	1.5708	0	0
110.02	-1.11209	1.30854	2.64621	0.905237	-0.640941	1.0737	0.168204	-0.225467	0.0786322	0.213999	-0.362361	0	0	0.099587	0.0341277	-0.177134	0.408686	-0.415618	0	0	-0.200402	0.278746	0.141864	0.397312	-0.272172	0.663199	1.69025	1.5708	0	0	0.259052	-0.11685	-0.0607322	1.0061	1.5708	0	0
110.03	-1.07179	1.30146	2.60708	0.904974	-0.640392	1.07308	0.181305	-0.226182	0.0821213	0.213345	-0.36272	0	0	0.110711	0.0361518	-0.172536	0.403861	-0.416206	0	0	-0.172086	0.303213	0.147544	0.395767	-0.273547	0.667569	1.67123	1.5708	0	0	0.298278	-0.0897	-0.0657346	0.904447	1.5708	0	0
110.04	-1.02858	1.29277	2.56507	0.904665	-0.639932	1.07216	0.197021	-0.227154	0.086301	0.213855	-0.363339	0	0	0.123796	0.0382571	-0.168078	0.398539	-0.417863	0	0	-0.136094	0.325614	0.16205	0.383998	-0.27969	0.660709	1.65401	1.5708	0	0	0.353412	-0.0514345	-0.0742246	0.769442	1.5708	0	0
110.05	-1.01618	1.29077	2.55264	0.904139	-0.640119	1.07163	0.202501	-0.227281	0.0881045	0.21611	-0.362393	0	0	0.126792	0.0383201	-0.166119	0.39593	-0.418766	0	0	-0.120018	0.33059	0.182836	0.368116	-0.289989	0.63894	1.65324	1.5708	0	0	0.393154	-0.0476057	-0.0184928	0.69404	1.5708	0	0
110.06	-1.01138	1.28916	2.54823	0.903817	-0.640289	1.07137	0.204653	-0.22806	0.0890578	0.216242	-0.361501	0	0	0.127857	0.0388864	-0.164226	0.393664	-0.419087	0	0	-0.111234	0.330577	0.189569	0.361873	-0.289195	0.626497	1.64767	1.5708	0	0	0.41472	-0.0397008	-0.00692769	0.654856	1.5708	0	0
110.07	-1.02109	1.29173	2.55708	0.903302	-0.640735	1.07146	0.201491	-0.227877	0.0883049	0.216962	-0.359242	0	0	0.123044	0.0381536	-0.164077	0.391854	-0.418496	0	0	-0.0974289	0.317865	0.235087	0.313261	-0.30466	0.558913	1.66316	1.5708	0	0	0.486018	-0.0331324	0.13056	0.546868	1.5708	0	0
110.08	-1.01845	1.28974	2.55405	0.903071	-0.64097	1.07112	0.204132	-0.2293	0.0882667	0.217559	-0.358641	0	0	0.124127	0.0390201	-0.163986	0.390282	-0.418575	0	0	-0.0914757	0.319777	0.244572	0.307418	-0.305717	0.546444	1.661	1.5708	0	0	0.510576	-0.00352499	0.0963744	0.494137	1.5708	0	0
110.09	-1.01609	1.28873	2.54881	0.902523	-0.641879	1.07067	0.209992	-0.23014	0.0919088	0.223768	-0.354323	0	0	0.125335	0.0394639	-0.165329	0.389466	-0.41752	0	0	-0.0878185	0.305939	0.257459	0.297147	-0.307584	0.524232	1.66367	1.5708	0	0	0.536039	-0.0361232	0.24771	0.483618	1.5708	0	0
110.1	-1.00333	1.28227	2.53577	0.902636	-0.641913	1.06992	0.217978	-0.233377	0.093291	0.224345	-0.353385	0	0	0.131036	0.0422744	-0.164788	0.386674	-0.418053	0	0	-0.089232	0.322781	0.248312	0.314195	-0.299711	0.540621	1.65596	1.5708	0	0	0.539809	-0.019932	0.193907	0.456416	1.5708	0	0
110.11	-1.01903	1.28842	2.54903	0.901857	-0.642597	1.07051	0.211632	-0.231557	0.0912249	0.224402	-0.353731	0	0	0.122655	0.0396342	-0.167077	0.385437	-0.416774	0	0	-0.087924	0.303038	0.252977	0.314754	-0.305166	0.531857	1.64852	1.5708	0	0	0.549224	-0.0407363	0.267013	0.472213	1.5708	0	0
110.12	-1.01314	1.28556	2.54178	0.901751	-0.64278	1.07015	0.215977	-0.233071	0.0921864	0.224436	-0.353834	0	0	0.12436	0.0406114	-0.168187	0.382782	-0.416791	0	0	-0.089686	0.308302	0.25182	0.321989	-0.301488	0.534094	1.64525	1.5708	0	0	0.555809	-0.035495	0.258165	0.459069	1.5708	0	0
110.13	-1.01157	1.2849	2.53823	0.901531	-0.643067	1.07007	0.218358	-0.233674	0.0918902	0.224424	-0.356878	0	0	0.123321	0.0407871	-0.16874	0.3789	-0.418149	0	0	-0.0888878	0.310094	0.241129	0.342105	-0.298114	0.553242	1.62925	1.5708	0	0	0.548517	-0.0325872	0.209197	0.465847	1.5708	0	0
110.14	-1.01079	1.28422	2.53502	0.901437	-0.6433	1.06988	0.220857	-0.234157	0.0908075	0.225266	-0.357061	0	0	0.122296	0.0406645	-0.170635	0.376249	-0.417487	0	0	-0.0890693	0.307048	0.247303	0.340012	-0.297416	0.542836	1.62895	1.5708	0	0	0.561517	-0.0313336	0.232649	0.451884	1.5708	0	0
110.15	-1.01021	1.28338	2.53188	0.901337	-0.64365	1.06973	0.224484	-0.234489	0.0895841	0.229011	-0.357231	0	0	0.121113	0.0410928	-0.170808	0.372664	-0.417855	0	0	-0.0883325	0.306516	0.242526	0.353938	-0.295728	0.553759	1.61739	1.5708	0	0	0.562214	-0.0307425	0.215613	0.450861	1.5708	0	0
110.16	-1.0095	1.28289	2.52847	0.901251	-0.643951	1.06955	0.22767	-0.234402	0.0888166	0.232064	-0.357231	0	0	0.120076	0.0408735	-0.17215	0.370122	-0.417769	0	0	-0.0884376	0.303173	0.243991	0.358301	-0.294694	0.551735	1.61311	1.5708	0	0	0.567919	-0.0317827	0.222775	0.448684	1.5708	0	0
110.17	-1.00914	1.28258	2.52523	0.901232	-0.644218	1.06938	0.231007	-0.234671	0.0889104	0.234077	-0.359445	0	0	0.118931	0.0405624	-0.173645	0.367587	-0.417524	0	0	-0.0891765	0.300148	0.244746	0.36321	-0.292955	0.55006	1.60871	1.5708	0	0	0.571148	-0.0310389	0.217017	0.449739	1.5708	0	0
110.18	-1.00769	1.28135	2.52057	0.9013	-0.644573	1.06907	0.237754	-0.234991	0.0891131	0.243008	-0.357228	0	0	0.118363	0.0409973	-0.174302	0.363875	-0.418705	0	0	-0.0873227	0.296785	0.24904	0.365943	-0.293513	0.546471	1.60444	1.5708	0	0	0.58413	-0.0300126	0.23946	0.432424	1.5708	0	0
110.19	-1.00824	1.28217	2.5181	0.901237	-0.644889	1.06902	0.23961	-0.233753	0.0896836	0.244908	-0.359237	0	0	0.116335	0.0399469	-0.175374	0.361594	-0.418146	0	0	-0.0876548	0.290836	0.250052	0.370186	-0.293062	0.543935	1.59984	1.5708	0	0	0.585246	-0.0314099	0.234757	0.440351	1.5708	0	0
110.2	-1.00677	1.2809	2.51366	0.901333	-0.645162	1.0688	0.244592	-0.233955	0.0918091	0.249756	-0.358107	0	0	0.115806	0.0405218	-0.175221	0.358129	-0.420431	0	0	-0.0875541	0.29181	0.247786	0.381174	-0.291536	0.551035	1.59117	1.5708	0	0	0.590463	-0.0309287	0.233004	0.431158	1.5708	0	0
110.21	-1.00818	1.28205	2.51236	0.901217	-0.645398	1.0689	0.245479	-0.233345	0.0921316	0.251216	-0.35877	0	0	0.113398	0.0395544	-0.176299	0.355523	-0.421304	0	0	-0.0875088	0.286804	0.248849	0.385606	-0.291913	0.549274	1.58574	1.5708	0	0	0.595007	-0.031069	0.235356	0.430877	1.5708	0	0
110.22	-1.00604	1.28134	2.50741	0.901366	-0.64563	1.06887	0.249396	-0.23336	0.0930337	0.255985	-0.358374	0	0	0.112639	0.0393918	-0.176998	0.351379	-0.424293	0	0	-0.0876216	0.289295	0.240848	0.403614	-0.288307	0.566068	1.57124	1.5708	0	0	0.591827	-0.0333159	0.215114	0.433326	1.5708	0	0
110.23	-1.00529	1.28125	2.50412	0.901417	-0.645913	1.06882	0.252697	-0.232273	0.0954374	0.259739	-0.358847	0	0	0.112058	0.0388957	-0.178071	0.349474	-0.425089	0	0	-0.0872196	0.287327	0.238401	0.412917	-0.286179	0.571134	1.56196	1.5708	0	0	0.592991	-0.0352421	0.211517	0.434472	1.5708	0	0
110.24	-1.00033	1.27823	2.49699	0.90177	-0.646139	1.06847	0.258453	-0.232739	0.0992619	0.261938	-0.360206	0	0	0.114628	0.0398578	-0.178519	0.347869	-0.426205	0	0	-0.0931372	0.296382	0.227158	0.433214	-0.27675	0.58942	1.55192	1.5708	0	0	0.585795	-0.0465657	0.206713	0.4481	1.5708	0	0
110.25	-1.00324	1.27957	2.49765	0.901673	-0.646486	1.06865	0.258236	-0.232046	0.10042	0.262463	-0.361238	0	0	0.112716	0.0390504	-0.179624	0.346802	-0.42654	0	0	-0.0950574	0.289843	0.229071	0.436153	-0.276879	0.584934	1.54861	1.5708	0	0	0.589978	-0.0526673	0.22614	0.454743	1.5708	0	0
110.26	-1.0027	1.28039	2.49527	0.901491	-0.646793	1.06882	0.258577	-0.231633	0.100971	0.262509	-0.36179	0	0	0.112101	0.0384819	-0.179563	0.345762	-0.426643	0	0	-0.0963062	0.286586	0.225196	0.445474	-0.274832	0.589853	1.54084	1.5708	0	0	0.585034	-0.0542243	0.20446	0.46965	1.5708	0	0
110.27	-1.01061	1.28493	2.50133	0.901023	-0.647256	1.06939	0.253791	-0.230204	0.0996551	0.261229	-0.363368	0	0	0.107359	0.0367391	-0.179519	0.34515	-0.426675	0	0	-0.0891735	0.268578	0.245115	0.426855	-0.287279	0.559182	1.54327	1.5708	0	0	0.615409	-0.0351941	0.233363	0.427092	1.5708	0	0
110.28	-1.00467	1.28093	2.49468	0.901341	-0.647414	1.06891	0.259564	-0.231148	0.101414	0.262382	-0.364078	0	0	0.111619	0.0387432	-0.178699	0.344945	-0.427237	0	0	-0.0901553	0.280927	0.247283	0.431859	-0.284353	0.559145	1.54156	1.5708	0	0	0.634427	-0.0106583	0.194711	0.375337	1.5708	0	0
110.29	-0.997512	1.27943	2.48575	0.901453	-0.647633	1.06866	0.265007	-0.22972	0.103236	0.265526	-0.365363	0	0	0.115211	0.0382742	-0.180581	0.346468	-0.428057	0	0	-0.0954884	0.288938	0.219091	0.469104	-0.268246	0.600054	1.51744	1.5708	0	0	0.595241	-0.0434677	0.163907	0.450406	1.5708	0	0
110.3	-0.993396	1.27781	2.48047	0.901629	-0.647831	1.06845	0.268563	-0.229487	0.104185	0.266613	-0.365552	0	0	0.117865	0.038868	-0.180187	0.347048	-0.428231	0	0	-0.0939903	0.29526	0.218502	0.475767	-0.265655	0.602454	1.51023	1.5708	0	0	0.604209	-0.0276976	0.126592	0.424095	1.5708	0	0
110.31	-1.00177	1.2823	2.48679	0.90141	-0.648366	1.06895	0.265168	-0.22732	0.103615	0.26793	-0.365262	0	0	0.113433	0.037159	-0.181161	0.347367	-0.425597	0	0	-0.095159	0.283148	0.223483	0.475247	-0.270211	0.592182	1.50749	1.5708	0	0	0.610885	-0.0420132	0.18828	0.434273	1.5708	0	0
110.32	-1.00264	1.28346	2.48621	0.901443	-0.648688	1.06904	0.265436	-0.226162	0.104151	0.268863	-0.364265	0	0	0.113085	0.0369072	-0.180597	0.348	-0.423978	0	0	-0.0970634	0.281281	0.223404	0.480179	-0.269926	0.590351	1.50403	1.5708	0	0	0.612028	-0.0441631	0.192948	0.440459	1.5708	0	0
110.33	-1.00473	1.28661	2.48651	0.901299	-0.649072	1.06928	0.264485	-0.223672	0.103338	0.270486	-0.361853	0	0	0.111227	0.0353699	-0.180964	0.348853	-0.421602	0	0	-0.0967747	0.271483	0.225159	0.481253	-0.272298	0.583959	1.50028	1.5708	0	0	0.609847	-0.0502682	0.203681	0.459851	1.5708	0	0
110.34	-1.00691	1.2881	2.48735	0.901427	-0.649365	1.06941	0.263275	-0.221925	0.102819	0.269562	-0.366379	0	0	0.109668	0.0350366	-0.181135	0.347761	-0.424519	0	0	-0.0971506	0.268781	0.230593	0.479047	-0.27469	0.57369	1.50006	1.5708	0	0	0.620883	-0.0476035	0.224717	0.446707	1.5708	0	0
